<svg height="499pt" viewBox="0 0 499 499.384" width="499pt" xmlns="http://www.w3.org/2000/svg"><path d="m304.191406 24.078125-232 232-6.078125-6.078125c-6.320312-6.320312-14.960937-9.921875-24-9.921875-9.28125 0-17.679687 3.683594-23.839843 9.769531l226.71875-230.40625c7.199218-7.28125 16.960937-11.363281 27.121093-11.441406 10.160157-.078125 20 4 27.199219 11.199219zm0 0" fill="#cf9e76"/><path d="m304.191406 24.078125-232 232 184 184 60.082032-60 64-64 .636718-.71875 107.28125-107.28125zm0 0" fill="#dfb28b"/><path d="m304.191406 80-176 176 128 128 176-176zm0 0" fill="#f5e0cd"/><path d="m400.1875 464.003906 64-64.003906 24.003906 24.003906-64.003906 64zm0 0" fill="#b4dd7f"/><path d="m376.1875 440.003906 64-64.003906 24.003906 24.003906-64 64zm0 0" fill="#e6e9ed"/><path d="m368.191406 304-64 64-24-24 64-64zm0 0" fill="#e6e9ed"/><path d="m304.191406 368 64-64 12.082032 12.078125 59.917968 59.921875-64 64-59.917968-59.921875zm0 0" fill="#fcd770"/><path d="m336.191406 288-48 48-24-64 8-8zm0 0" fill="#fcd770"/><path d="m388.511719 388.320312c-6.320313 6.238282-16.398438 6.238282-22.640625 0-6.238282-6.320312-6.238282-16.398437 0-22.640624 6.242187-6.238282 16.320312-6.238282 22.640625 0 6.242187 6.242187 6.242187 16.320312 0 22.640624zm0 0" fill="#e6e9ed"/><path d="m347.632812 187.679688c2.960938 6.160156 4.558594 13.039062 4.558594 20.320312s-1.597656 14.160156-4.558594 20.320312c-7.601562 16.320313-24.242187 27.679688-43.441406 27.679688-26.480468 0-48-21.519531-48-48 0-19.199219 11.359375-35.839844 27.679688-43.441406 6.160156-2.957032 13.039062-4.558594 20.320312-4.558594s14.160156 1.601562 20.320313 4.558594c10.160156 4.722656 18.398437 12.960937 23.121093 23.121094zm0 0" fill="#d3a06c"/><path d="m360.191406 184c13.28125 0 24 10.71875 24 24s-10.71875 24-24 24c-4.640625 0-8.878906-1.359375-12.558594-3.679688 2.960938-6.160156 4.558594-13.039062 4.558594-20.320312s-1.597656-14.160156-4.558594-20.320312c3.679688-2.320313 7.917969-3.679688 12.558594-3.679688zm0 0" fill="#b27946"/><path d="m328.191406 152c0 4.640625-1.359375 8.878906-3.679687 12.558594-6.160157-2.957032-13.039063-4.558594-20.320313-4.558594s-14.160156 1.601562-20.320312 4.558594c-2.320313-3.679688-3.679688-7.917969-3.679688-12.558594 0-13.28125 10.71875-24 24-24s24 10.71875 24 24zm0 0" fill="#b27946"/><path d="m232.191406 416.078125 24 24-48 48-190.078125-190.078125c-6.320312-6.320312-9.921875-14.960938-9.921875-24 0-9.359375 3.839844-17.839844 9.921875-24l.160157-.160156c6.160156-6.085938 14.558593-9.769532 23.839843-9.769532 9.039063 0 17.679688 3.601563 24 9.921876l6.078125 6.085937zm0 0" fill="#e6e9ed"/><path d="m499.503906 208.070312-194.519531-194.527343c-8.617187-8.613281-20.519531-13.542969-32.703125-13.542969-.074219 0-.144531 0-.210938 0-12.238281.0546875-24.175781 5.097656-32.75 13.816406l-226.734374 230.429688.023437.027344c-7.65625 7.605468-12.417969 18.125-12.417969 29.742187 0 11.199219 4.359375 21.738281 12.289063 29.65625l195.710937 195.710937 108.03125-108.03125 107.96875 107.960938 75.3125-75.3125-107.96875-107.96875zm-248.777344-183.039062c5.617188-5.703125 13.417969-8.992188 21.417969-9.03125h.136719c7.589844 0 14.957031 3 20.519531 8.152344l-220.609375 220.609375-.398437-.402344c-6.855469-6.855469-15.703125-10.847656-25.207031-11.855469zm-42.535156 451.730469-184.398437-184.402344c-4.90625-4.894531-7.601563-11.414063-7.601563-18.34375 0-14.304687 11.640625-25.945313 25.945313-25.945313 6.925781 0 13.4375 2.707032 18.34375 7.601563l160.367187 160.359375-12.65625 12.65625-162.34375-162.34375-11.3125 11.3125 173.65625 173.65625 23.96875-23.96875 12.71875 12.71875zm48-48-172.6875-172.691407 220.6875-220.6875 172.6875 172.6875-96.65625 96.648438-16.71875-16.71875 80-80-139.3125-139.3125-187.3125 187.3125 139.3125 139.3125 32-32 16.730469 16.726562zm120-.074219-60.6875-60.6875 52.6875-52.6875 60.6875 60.6875zm64-41.375 12.6875 12.6875-52.6875 52.6875-12.6875-12.6875zm-96-118.625-10.015625 10.015625-44.421875-16.65625c4.621094 1.234375 9.4375 1.953125 14.4375 1.953125 19.59375 0 36.832032-10.128906 46.847656-25.40625 2.976563.910156 6.050782 1.40625 9.152344 1.40625 17.648438 0 32-14.351562 32-32s-14.351562-32-32-32c-3.101562 0-6.175781.496094-9.152344 1.40625-4.238281-6.46875-9.773437-12.007812-16.246093-16.253906.902343-2.96875 1.398437-6.046875 1.398437-9.152344 0-17.648438-14.351562-32-32-32-17.648437 0-32 14.351562-32 32 0 3.105469.496094 6.183594 1.410156 9.152344-15.28125 10.015625-25.410156 27.261718-25.410156 46.847656 0 22.054688 12.855469 41.121094 31.433594 50.246094l-9.449219-3.542969-15.289062 15.28125 24 64.007813-10.007813 10.007812 8 8-20.6875 20.6875-116.6875-116.6875 164.6875-164.6875 116.6875 116.6875-68.6875 68.6875zm-52.871094 52.871094-17.832031-47.542969.710938-.71875 47.542969 17.832031zm-3.128906-169.558594c0-8.824219 7.175782-16 16-16 8.824219 0 16 7.175781 16 16 0 .777344-.207031 1.519531-.320312 2.273438-4.984375-1.457032-10.230469-2.273438-15.679688-2.273438-5.449218 0-10.695312.816406-15.679687 2.273438-.113281-.753907-.320313-1.496094-.320313-2.273438zm16 16c22.054688 0 40 17.945312 40 40s-17.945312 40-40 40c-22.054687 0-40-17.945312-40-40s17.945313-40 40-40zm53.730469 24.328125c.75-.121094 1.492187-.328125 2.269531-.328125 8.824219 0 16 7.175781 16 16s-7.175781 16-16 16c-.777344 0-1.519531-.207031-2.269531-.328125 1.453125-4.976563 2.269531-10.222656 2.269531-15.671875s-.816406-10.695312-2.269531-15.671875zm-66.417969 151.671875 52.6875-52.6875 12.6875 12.6875-52.6875 52.6875zm132.6875 132.6875-12.6875-12.6875 52.6875-52.6875 12.6875 12.6875zm0 0"/><path d="m360.191406 360c-4.527344 4.527344-7.023437 10.558594-7.023437 16.96875 0 6.414062 2.496093 12.4375 7.023437 16.96875 4.679688 4.679688 10.824219 7.023438 16.976563 7.015625 6.144531 0 12.289062-2.335937 16.96875-7.015625 4.527343-4.53125 7.023437-10.554688 7.023437-16.96875 0-6.410156-2.496094-12.441406-7.023437-16.96875-9.367188-9.367188-24.59375-9.359375-33.945313 0zm22.625 11.3125c1.511719 1.503906 2.34375 3.519531 2.34375 5.65625 0 2.144531-.832031 4.152344-2.335937 5.65625-3.113281 3.128906-8.191407 3.128906-11.320313 0-1.511718-1.503906-2.335937-3.511719-2.335937-5.65625 0-2.136719.832031-4.152344 2.335937-5.65625 1.558594-1.558594 3.609375-2.335938 5.664063-2.335938 2.039062 0 4.089843.777344 5.648437 2.335938zm0 0"/><path d="m221.976562 313.105469 11.3125-11.3125 12.554688 12.550781-11.316406 11.316406zm0 0"/><path d="m162.535156 253.660156 11.3125-11.3125 48.996094 48.992188-11.316406 11.3125zm0 0"/></svg>