<svg id="Layer_1" height="512" viewBox="0 0 512 512" width="512" xmlns="http://www.w3.org/2000/svg" data-name="Layer 1"><rect fill="#6d7486" height="307.16" rx="25.6" width="167.66" x="172.17" y="102.42"/><path d="m202.17 383.98v-255.96a25.6 25.6 0 0 1 25.6-25.6h-30a25.6 25.6 0 0 0 -25.6 25.6v255.96a25.6 25.6 0 0 0 25.6 25.6h30a25.6 25.6 0 0 1 -25.6-25.6z" fill="#505560"/><path d="m256 16c-132.55 0-240 107.45-240 240s107.45 240 240 240 240-107.45 240-240-107.45-240-240-240zm0 444.86c-113.14 0-204.86-91.72-204.86-204.86a204.028 204.028 0 0 1 47.87-131.62l288.61 288.61c-35.72 30.33-81.09 47.87-131.62 47.87zm156.48-72.63-287.66-289.59a204.041 204.041 0 0 1 131.18-47.5c113.14 0 204.86 91.72 204.86 204.86 0 50.77-17.8 96.44-48.38 132.23z" fill="#eb7288"/><ellipse cx="256" cy="373.06" fill="#4a5160" rx="16.9" ry="16.93"/><path d="m286.558 128.252h-61.116a6 6 0 1 1 0-12h61.116a6 6 0 0 1 0 12z" fill="#4a5160"/><g fill="#f4f8fc"><path d="m191.892 334.287a6 6 0 0 1 -6-6v-50.614a6 6 0 0 1 12 0v50.614a6 6 0 0 1 -6 6z"/><path d="m191.892 265.287a6 6 0 0 1 -6-6v-4.807a6 6 0 1 1 12 0v4.807a6 6 0 0 1 -6 6z"/></g></svg>