<svg id="Capa_1" enable-background="new 0 0 512 512" height="512" viewBox="0 0 512 512" width="512" xmlns="http://www.w3.org/2000/svg"><g><path d="m369.844 473.495h-227.677c-6.64 0-12.023-5.383-12.023-12.023v-200.893c0-48.039 38.943-86.983 86.983-86.983h77.759c48.039 0 86.983 38.943 86.983 86.983v200.893c-.002 6.64-5.385 12.023-12.025 12.023z" fill="#e49542"/><path d="m294.885 173.596h-26.328c48.039 0 86.982 38.943 86.982 86.983v200.893c0 6.64-5.383 12.023-12.023 12.023h26.328c6.64 0 12.023-5.383 12.023-12.023v-200.893c0-48.039-38.943-86.983-86.982-86.983z" fill="#e27d47"/><path d="m291.913 438.396h-14.75-42.316-14.75c-29.351 0-53.145 23.794-53.145 53.145v13.686c0 3.738 3.03 6.768 6.768 6.768h164.568c3.738 0 6.768-3.03 6.768-6.768v-13.686c.002-29.351-23.792-53.145-53.143-53.145z" fill="#365e7d"/><path d="m291.913 438.396h-25.895c29.351 0 53.145 23.794 53.145 53.145v13.686c0 3.738-3.03 6.768-6.768 6.768h25.895c3.738 0 6.768-3.03 6.768-6.768v-13.686c0-29.351-23.794-53.145-53.145-53.145z" fill="#2b4d66"/><path d="m270.817 399.208-28.416-1.672c-7.255 0-7.574 33.991-7.574 33.991v20.809c0 11.685 9.473 21.158 21.158 21.158 11.685 0 21.158-9.473 21.158-21.158v-20.809c.001.001.929-32.319-6.326-32.319z" fill="#eaac9d"/><path d="m256.005 438.396c-56.389 0-102.101-45.712-102.101-102.101v-61.754c0-1.483 1.206-2.679 2.688-2.682 47.255-.087 89.019-6.855 126.272-30.928 1.113-.719 2.601-.489 3.398.569 16.823 22.334 39.768 28.514 69.167 30.215 1.499.087 2.676 1.318 2.676 2.82v61.76c.001 56.389-45.711 102.101-102.1 102.101z" fill="#ffcbbe"/><path d="m355.43 271.715c-8.651-.501-16.738-1.395-24.28-2.968v67.548c0 51.819-38.605 94.618-88.623 101.214 4.411.582 8.908.887 13.478.887 56.389 0 102.101-45.712 102.101-102.101v-61.76c0-1.502-1.177-2.734-2.676-2.82z" fill="#eaac9d"/><g><g><path d="m210.545 343.873c-4.268 0-7.726-3.459-7.726-7.726v-5.945c0-4.268 3.459-7.726 7.726-7.726s7.726 3.459 7.726 7.726v5.945c0 4.267-3.459 7.726-7.726 7.726z" fill="#365e7d"/></g><g><path d="m301.466 343.873c-4.268 0-7.726-3.459-7.726-7.726v-5.945c0-4.268 3.459-7.726 7.726-7.726s7.726 3.459 7.726 7.726v5.945c0 4.267-3.459 7.726-7.726 7.726z" fill="#365e7d"/></g></g><g><path d="m256.005 394.56c-11.324 0-22.647-3.121-33.893-9.361-3.73-2.07-5.076-6.773-3.006-10.505 2.071-3.731 6.772-5.075 10.505-3.006 17.761 9.858 35.029 9.856 52.789 0 3.732-2.069 8.433-.725 10.505 3.006 2.07 3.731.724 8.434-3.006 10.505-11.246 6.24-22.57 9.361-33.894 9.361z" fill="#da4a54"/></g><path d="m312.406 56.405c0-31.88-26.451-57.582-58.603-56.358-28.958 1.103-52.667 24.501-54.124 53.443-1.383 27.464 16.893 50.892 41.991 57.469 1.685.441 3.116 1.55 3.987 3.058l7.85 13.597c1.111 1.924 3.887 1.924 4.998 0l7.85-13.596c.868-1.503 2.291-2.615 3.97-3.055 24.213-6.337 42.081-28.357 42.081-54.558z" fill="#ffe07d"/><path d="m260.974.24c16.48 9.845 27.524 27.848 27.524 48.44 0 26.2-17.868 48.22-42.081 54.558-1.679.439-3.103 1.551-3.97 3.055l-2.423 4.197c.547.161 1.093.325 1.647.47 1.685.441 3.116 1.55 3.987 3.058l7.85 13.597c1.111 1.924 3.887 1.924 4.998 0l7.85-13.596c.868-1.503 2.291-2.615 3.97-3.055 24.213-6.337 42.081-28.357 42.081-54.557-.001-29.475-22.614-53.649-51.433-56.167z" fill="#ffd064"/><path d="m445.298 111.594c18.031-26.291 10.753-62.448-16.455-79.623-24.505-15.468-57.291-9.581-74.862 13.463-16.673 21.867-14.851 51.525 2.127 71.144 1.14 1.317 1.693 3.041 1.558 4.777l-1.216 15.653c-.172 2.214 2.118 3.785 4.121 2.826l14.163-6.773c1.566-.749 3.369-.861 5.002-.273 23.554 8.467 50.744.413 65.562-21.194z" fill="#80b4fb"/><path d="m434.648 36.186c8.022 17.44 6.949 38.533-4.697 55.515-14.818 21.607-42.008 29.661-65.561 21.193-1.633-.587-3.436-.475-5.002.274l-4.373 2.091c.36.442.718.886 1.092 1.319 1.14 1.317 1.693 3.041 1.558 4.777l-1.216 15.653c-.172 2.214 2.118 3.785 4.122 2.827l14.163-6.773c1.566-.749 3.369-.861 5.002-.274 23.553 8.468 50.742.414 65.561-21.193 16.67-24.307 11.694-57.033-10.649-75.409z" fill="#61a2f9"/><path d="m494.653 250.561c23.001-22.075 23.229-58.956.082-81.306-20.847-20.129-54.145-21.033-76.035-2.044-20.772 18.019-25.02 47.427-12.387 70.089.848 1.521 1.039 3.322.554 4.994l-4.374 15.079c-.619 2.133 1.304 4.136 3.46 3.606l15.245-3.751c1.685-.415 3.473-.158 4.953.75 21.34 13.081 49.599 10.725 68.502-7.417z" fill="#95d6a4"/><path d="m499.563 174.563c4.308 18.707-1.033 39.141-15.89 53.399-18.903 18.142-47.163 20.498-68.501 7.417-1.48-.907-3.268-1.164-4.953-.749l-4.707 1.158c.262.506.523 1.013.801 1.513.848 1.521 1.039 3.322.554 4.994l-4.374 15.079c-.619 2.133 1.304 4.136 3.461 3.606l15.245-3.751c1.685-.415 3.473-.157 4.953.75 21.338 13.081 49.598 10.725 68.501-7.417 21.264-20.409 23.049-53.463 4.91-75.999z" fill="#78c2a4"/><path d="m66.702 111.594c-18.03-26.291-10.753-62.448 16.455-79.623 24.505-15.468 57.291-9.581 74.862 13.463 16.673 21.867 14.851 51.525-2.127 71.144-1.14 1.317-1.693 3.041-1.558 4.777l1.216 15.653c.172 2.214-2.118 3.785-4.121 2.826l-14.163-6.773c-1.566-.749-3.369-.861-5.002-.273-23.554 8.467-50.744.413-65.562-21.194z" fill="#dd636e"/><g><path d="m158.019 45.434c-13.764-18.051-36.863-25.571-58.006-20.548 12.325 2.897 23.723 9.88 31.857 20.548 16.673 21.868 14.851 51.525-2.127 71.144-1.14 1.317-1.693 3.041-1.558 4.777l.966 12.438c1.043-.308 2.082-.635 3.112-1.005 1.633-.587 3.436-.475 5.002.274l14.163 6.773c2.004.958 4.293-.612 4.121-2.826l-1.216-15.653c-.135-1.736.419-3.46 1.558-4.777 16.979-19.621 18.801-49.278 2.128-71.145z" fill="#da4a54"/></g><path d="m17.347 250.561c-23.001-22.075-23.229-58.956-.082-81.306 20.847-20.129 54.145-21.033 76.035-2.044 20.772 18.019 25.02 47.427 12.387 70.089-.848 1.521-1.039 3.322-.554 4.994l4.374 15.079c.619 2.133-1.304 4.136-3.461 3.606l-15.245-3.751c-1.685-.415-3.473-.158-4.953.75-21.339 13.081-49.598 10.725-68.501-7.417z" fill="#bc95e2"/><path d="m105.132 242.295c-.485-1.673-.294-3.473.554-4.994 12.633-22.662 8.386-52.07-12.387-70.089-21.035-18.247-52.598-18.115-73.53-.216 16.264-2.869 33.609 1.336 46.808 12.786 20.772 18.02 25.02 47.427 12.387 70.089-.848 1.521-1.039 3.321-.554 4.994l1.781 6.139c1.929-.897 3.82-1.9 5.657-3.026 1.48-.907 3.268-1.164 4.953-.75l15.245 3.751c2.157.531 4.079-1.472 3.46-3.606z" fill="#ac80dd"/></g></svg>