<?xml version="1.0" encoding="iso-8859-1"?>
<!-- Generator: Adobe Illustrator 19.0.0, SVG Export Plug-In . SVG Version: 6.00 Build 0)  -->
<svg version="1.1" id="Capa_1" xmlns="http://www.w3.org/2000/svg" xmlns:xlink="http://www.w3.org/1999/xlink" x="0px" y="0px"
	 viewBox="0 0 512 512" style="enable-background:new 0 0 512 512;" xml:space="preserve">
<path style="fill:#B2DCFE;" d="M361.781,427.009l-95.175-95.176c-5.857-5.857-15.355-5.857-21.213,0l-95.175,95.176
	c-4.29,4.29-5.573,10.741-3.252,16.347c2.322,5.605,7.791,9.26,13.858,9.26h32.588v32.588c0,8.283,6.716,15,15,15h95.175
	c8.284,0,15-6.717,15-15v-32.588h32.588c6.067,0,11.536-3.654,13.858-9.26C367.354,437.75,366.071,431.299,361.781,427.009z"/>
<path style="fill:#FEDB41;" d="M228.951,24.539c-5.172-3.169-11.744-2.912-16.653,0.654l-26.364,19.152l-19.157-26.364
	c-4.869-6.702-14.248-8.188-20.951-3.318L68.829,70.605c-3.219,2.339-5.377,5.859-5.999,9.789c-0.622,3.93,0.342,7.945,2.681,11.163
	l19.155,26.365l-26.367,19.157c-4.908,3.566-7.185,9.738-5.769,15.638c1.417,5.899,6.248,10.364,12.239,11.313l132.942,21.054
	c0.796,0.126,1.585,0.187,2.365,0.187c7.249,0,13.627-5.269,14.797-12.655l21.055-132.938
	C236.879,33.684,234.125,27.709,228.951,24.539z"/>
<path style="fill:#18A7FC;" d="M172.293,263.308L52.367,202.204c-5.405-2.754-11.938-1.98-16.551,1.959
	c-4.613,3.939-6.399,10.27-4.524,16.041l10.068,30.992l-30.994,10.072c-7.878,2.561-12.189,11.023-9.628,18.901l29.41,90.518
	c1.23,3.783,3.911,6.924,7.455,8.73c3.544,1.805,7.662,2.13,11.446,0.9l30.993-10.071l10.071,30.993
	c1.874,5.771,7.04,9.843,13.089,10.318c0.396,0.031,0.789,0.046,1.182,0.046c5.604,0,10.785-3.138,13.36-8.19l61.105-119.928
	C182.609,276.102,179.674,267.07,172.293,263.308z"/>
<path style="fill:#86CAFD;" d="M361.781,427.009l-95.175-95.176c-2.929-2.929-6.767-4.394-10.606-4.394v172.763h47.587
	c8.284,0,15-6.717,15-15v-32.588h32.588c6.067,0,11.536-3.654,13.858-9.26C367.354,437.75,366.071,431.299,361.781,427.009z"/>
<path style="fill:#FE73B1;" d="M459.633,202.204L339.706,263.31c-7.382,3.76-10.317,12.793-6.556,20.175l61.107,119.927
	c2.754,5.406,8.493,8.619,14.541,8.145c6.048-0.478,11.215-4.549,13.09-10.319l10.07-30.993l30.992,10.07
	c7.879,2.56,16.342-1.752,18.901-9.631l29.411-90.517c2.56-7.879-1.753-16.341-9.631-18.9l-30.993-10.07l10.07-30.993
	c1.875-5.77,0.089-12.101-4.523-16.042C471.572,200.223,465.039,199.449,459.633,202.204z"/>
<path style="fill:#FD0F7F;" d="M459.633,202.204L339.706,263.31c-3.691,1.88-6.27,5.079-7.457,8.729l164.308,53.386l14.705-45.258
	c2.56-7.879-1.753-16.341-9.631-18.9l-30.993-10.07l10.07-30.993c1.875-5.77,0.089-12.101-4.523-16.042
	C471.572,200.223,465.039,199.449,459.633,202.204z"/>
<path style="fill:#FEB756;" d="M276.071,39.674l21.056,132.939c1.295,8.183,8.979,13.766,17.161,12.469l132.94-21.057
	c5.993-0.948,10.822-5.413,12.24-11.311c1.414-5.9-0.861-12.072-5.769-15.639l-26.364-19.154l19.154-26.363
	c4.869-6.703,3.384-16.084-3.319-20.953l-76.997-55.942c-6.703-4.869-16.083-3.383-20.951,3.319l-19.155,26.364l-26.364-19.154
	c-4.909-3.567-11.482-3.825-16.655-0.656C277.876,27.707,275.122,33.682,276.071,39.674z"/>
<path style="fill:#FE8821;" d="M276.071,39.674l21.056,132.939c0.647,4.092,2.893,7.533,5.998,9.789L404.671,42.634l-38.498-27.971
	c-6.703-4.869-16.083-3.383-20.951,3.319l-19.155,26.364l-26.364-19.154c-4.909-3.567-11.482-3.825-16.655-0.656
	C277.876,27.707,275.122,33.682,276.071,39.674z"/>
<path style="fill:#FEA832;" d="M64.771,164.026l132.939,21.057c4.092,0.648,8.059-0.425,11.164-2.681L107.326,42.636l-38.498,27.97
	c-6.702,4.871-8.187,14.251-3.317,20.952l19.155,26.364l-26.364,19.155c-4.909,3.567-7.186,9.738-5.771,15.637
	C53.948,158.612,58.779,163.077,64.771,164.026z"/>
<path style="fill:#18A7FC;" d="M117.742,403.412l61.107-119.926c1.881-3.691,2.086-7.795,0.9-11.445L15.444,325.429l14.704,45.258
	c2.562,7.879,11.024,12.189,18.902,9.63l30.993-10.071l10.07,30.993c1.876,5.771,7.041,9.844,13.088,10.32
	C109.249,412.033,114.988,408.818,117.742,403.412z"/>
<g>
</g>
<g>
</g>
<g>
</g>
<g>
</g>
<g>
</g>
<g>
</g>
<g>
</g>
<g>
</g>
<g>
</g>
<g>
</g>
<g>
</g>
<g>
</g>
<g>
</g>
<g>
</g>
<g>
</g>
</svg>
