<svg id="Capa_1" enable-background="new 0 0 512 512" height="512" viewBox="0 0 512 512" width="512" xmlns="http://www.w3.org/2000/svg" xmlns:xlink="http://www.w3.org/1999/xlink"><linearGradient id="SVGID_1_" gradientUnits="userSpaceOnUse" x1="74.981" x2="437.019" y1="74.981" y2="437.019"><stop offset="0" stop-color="#ff6c25"/><stop offset="1" stop-color="#ff4725"/></linearGradient><linearGradient id="SVGID_2_" gradientUnits="userSpaceOnUse" x1="88.691" x2="305.67" y1="374.293" y2="374.293"><stop offset=".0032" stop-color="#e1d7df"/><stop offset="1" stop-color="#d0c0cc"/></linearGradient><linearGradient id="SVGID_3_" gradientUnits="userSpaceOnUse" x1="147.511" x2="384.096" y1="256" y2="256"><stop offset="0" stop-color="#f2edf1"/><stop offset="1" stop-color="#e1d7df"/></linearGradient><linearGradient id="SVGID_4_" gradientUnits="userSpaceOnUse" x1="196.527" x2="295.867" y1="182.917" y2="182.917"><stop offset="0" stop-color="#ff2225"/><stop offset="1" stop-color="#cf2731"/></linearGradient><linearGradient id="lg1"><stop offset="0" stop-color="#6e4e6e"/><stop offset="1" stop-color="#4e2c52"/></linearGradient><linearGradient id="SVGID_5_" gradientUnits="userSpaceOnUse" x1="196.527" x2="295.867" xlink:href="#lg1" y1="335.08" y2="335.08"/><linearGradient id="SVGID_6_" gradientUnits="userSpaceOnUse" x1="196.527" x2="295.867" xlink:href="#lg1" y1="295.867" y2="295.867"/><linearGradient id="SVGID_7_" gradientUnits="userSpaceOnUse" x1="196.527" x2="295.867" xlink:href="#lg1" y1="256.654" y2="256.654"/><g><circle cx="256" cy="256" fill="url(#SVGID_1_)" r="256"/><g><path d="m147.511 374.293h-58.82c0 27.028 21.989 49.016 49.016 49.016h167.963v-98.032z" fill="url(#SVGID_2_)"/><path d="m186.724 88.691c-21.657 0-39.213 17.556-39.213 39.213v246.388h118.946v9.803c0 21.622 17.59 39.213 39.213 39.213 21.657-.007 39.213-17.563 39.213-39.219v-246.381l39.213-49.016h-197.372z" fill="url(#SVGID_3_)"/><path d="m384.096 88.691c-21.622 0-39.213 17.591-39.213 39.213v9.803h78.426v-9.803c0-21.622-17.591-39.213-39.213-39.213z" fill="#d0c0cc"/><path d="m262.535 137.708c-5.801 0-11.399 1.485-16.339 4.273-4.94-2.788-10.537-4.273-16.339-4.273-18.379 0-33.331 14.952-33.331 33.331 0 35.142 43.9 54.585 45.769 55.396l3.901 1.692 3.9-1.692c1.869-.811 45.769-20.254 45.769-55.396.001-18.379-14.951-33.331-33.33-33.331z" fill="url(#SVGID_4_)"/><path d="m196.527 325.276h99.339v19.606h-99.339z" fill="url(#SVGID_5_)"/><path d="m196.527 286.063h99.339v19.607h-99.339z" fill="url(#SVGID_6_)"/><path d="m196.527 246.85h99.339v19.607h-99.339z" fill="url(#SVGID_7_)"/></g></g></svg>