<svg height="512" viewBox="0 0 512 512" width="512" xmlns="http://www.w3.org/2000/svg"><path d="m264 72a160 160 0 0 1 160 160 157.561 157.561 0 0 1 -1.87 24h48.445a206.649 206.649 0 0 0 1.425-24c0-114.875-93.125-208-208-208s-208 93.125-208 208h48a160 160 0 0 1 160-160z" fill="#ff421d"/><path d="m144 120a119.413 119.413 0 0 0 -66.679 20.243 207.086 207.086 0 0 0 -21.321 91.757h48a159.4 159.4 0 0 1 45.573-111.719c-1.86-.081-3.692-.281-5.573-.281z" fill="#bf3216"/><path d="m445.31 200.271a47.992 47.992 0 0 0 -33.991-30.771 159.458 159.458 0 0 1 12.681 62.5 157.561 157.561 0 0 1 -1.87 24h48.445a206.649 206.649 0 0 0 1.425-24 209.705 209.705 0 0 0 -1.562-25.107 39.8 39.8 0 0 0 -22.438-6.893c-.922 0-1.784.209-2.69.271z" fill="#bf3216"/><path d="m264 120a111.83 111.83 0 0 1 109.357 136h48.773a157.561 157.561 0 0 0 1.87-24 160 160 0 0 0 -320 0h48a112 112 0 0 1 112-112z" fill="#fdb62f"/><path d="m205.112 136.86a119.164 119.164 0 0 0 -55.539-16.579 159.4 159.4 0 0 0 -45.573 111.719h48a111.813 111.813 0 0 1 53.112-95.14z" fill="#f29706"/><path d="m376 232a112 112 0 0 0 -224 0h48a64 64 0 1 1 123.3 24h50.053a111.026 111.026 0 0 0 2.647-24z" fill="#39b54a"/><path d="m205.112 136.86a111.813 111.813 0 0 0 -53.112 95.14h48a63.968 63.968 0 0 1 42.629-60.266 120.5 120.5 0 0 0 -37.517-34.874z" fill="#006837"/><path d="m373.357 256a110.725 110.725 0 0 0 -8.551-72.562 47.773 47.773 0 0 0 -12.806 32.562c0 .388.049.764.058 1.149a30.633 30.633 0 0 0 -25.071 3.839 62.617 62.617 0 0 1 -3.687 35.012z" fill="#006837"/><path d="m364.806 183.438a110.725 110.725 0 0 1 8.551 72.562h48.773a157.561 157.561 0 0 0 1.87-24 159.458 159.458 0 0 0 -12.681-62.5 46.828 46.828 0 0 0 -46.513 13.939z" fill="#f29706"/><path d="m64 488 2.713-12.21a147.862 147.862 0 0 0 -19.6-111.463 147.865 147.865 0 0 1 -23.113-79.386v-28.941a120 120 0 0 1 120-120 120 120 0 0 1 120 120v8l32 80h-32v61.067a42.933 42.933 0 0 1 -42.933 42.933 42.933 42.933 0 0 0 -39.862 26.988l-5.205 13.012z" fill="#fadbb7"/><path d="m222.716 165.569a49.528 49.528 0 0 0 -14.735 6.261 49.344 49.344 0 0 0 6.279-12.968 119.482 119.482 0 0 0 -30.6-16.014 15.931 15.931 0 0 0 4.1 7.964l14.676 15.252a24 24 0 0 0 -33.934-.653 16 16 0 1 0 22.187 23.059 16 16 0 1 0 22.186 23.06 24 24 0 0 0 .656-33.934l14.669 15.252a16 16 0 0 0 17.547 3.732l1.938-.787a120.418 120.418 0 0 0 -24.969-30.224z" fill="#f4c08e"/><path d="m147.115 192a49.759 49.759 0 0 0 -48.792 40 49.759 49.759 0 0 0 -48.792-40 4.879 4.879 0 0 0 -4.531 6.692l9.3 23.25a16 16 0 0 0 14.855 10.058h21.168a24 24 0 0 0 -24 24 16 16 0 0 0 32 0 16 16 0 0 0 32 0 24 24 0 0 0 -24-24h21.167a16 16 0 0 0 14.856-10.058l9.3-23.25a4.88 4.88 0 0 0 -4.531-6.692z" fill="#f4c08e"/><g fill="#662d91"><path d="m412.454 52.185-24.825-3.285a16 16 0 0 0 -16.046 8.022l-10.372 18.452a24 24 0 0 0 -9.162-32.681 16 16 0 0 0 -15.68 27.9 16 16 0 1 0 -15.679 27.891 24 24 0 0 0 32.681-9.161l-10.371 18.451a16 16 0 0 0 1.488 17.879l15.711 19.5a4.88 4.88 0 0 0 8.054-.671 49.756 49.756 0 0 0 -10.962-62.132 49.76 49.76 0 0 0 58.776-22.935 4.88 4.88 0 0 0 -3.613-7.23z"/><path d="m136.792 176a49.759 49.759 0 0 0 -48.792 40 49.759 49.759 0 0 0 -48.792-40 4.88 4.88 0 0 0 -4.531 6.692l9.3 23.25a16 16 0 0 0 14.856 10.058h21.167a24 24 0 0 0 -24 24 16 16 0 0 0 32 0 16 16 0 0 0 32 0 24 24 0 0 0 -24-24h21.167a16 16 0 0 0 14.856-10.058l9.3-23.25a4.88 4.88 0 0 0 -4.531-6.692z"/><path d="m278.654 159.426a49.758 49.758 0 0 0 -62.654-7.426 49.759 49.759 0 0 0 -5-62.894 4.88 4.88 0 0 0 -7.964 1.375l-10.311 22.819a16 16 0 0 0 3.052 17.678l14.676 15.253a24 24 0 0 0 -33.934-.653 16 16 0 1 0 22.187 23.059 16 16 0 0 0 22.186 23.06 24 24 0 0 0 .656-33.934l14.675 15.252a16 16 0 0 0 17.548 3.732l23.2-9.418a4.881 4.881 0 0 0 1.683-7.903z"/></g><path d="m68.854 424.883a147.614 147.614 0 0 1 -2.141 50.907l-2.713 12.21h112l5.205-13.012a42.933 42.933 0 0 1 39.862-26.988 42.933 42.933 0 0 0 42.933-42.933v-61.067h32l-22.36-55.9a400.24 400.24 0 0 1 -204.786 136.783z" fill="#f4c08e"/><path d="m448 216c-.922 0-1.784.209-2.69.271a47.977 47.977 0 0 0 -93.31 15.729c0 .388.049.764.058 1.149a31.949 31.949 0 1 0 -8.058 62.851h104a40 40 0 0 0 0-80z" fill="#6cbbc7"/><path d="m456.843 217.055a398.748 398.748 0 0 1 -134.593 70.3 31.8 31.8 0 0 0 21.75 8.645h104a39.964 39.964 0 0 0 8.843-78.945z" fill="#56959f"/></svg>