<svg id="Capa_1" enable-background="new 0 0 497 497" height="512" viewBox="0 0 497 497" width="512" xmlns="http://www.w3.org/2000/svg"><g><path d="m18.285 486.251 57.249-170.528c6.758-20.129 22.305-36.091 42.25-43.375l111.552-40.741 5.754-2.101c14.513-5.301 28.587 2.081 34.023 16.544 5.405 14.378-1.708 29.435-15.988 35.093l-31.148 12.134c-11.847 4.694-19.666 20.086-15.013 31.949 1.15 2.932 4.833 5.499 6.896 7.631.952.984 1.985 1.876 3.084 2.669 6.043 4.361 14.073 5.721 21.571 2.95l150.846-55.745 41.648-76.672c1.507-2.774 3.462-5.169 5.734-7.137 6.815-5.902 16.476-5.946 25.394-2.761l-1-1c13.516 4.827 20.43 19.815 15.33 33.23l-39.651 100.659c-3.138 8.252-9.288 15.008-17.211 18.903l-24.047 12.807-196.152 96.446c-5.579 2.743-9.113 8.419-9.113 14.635v17.003c0 4.503-3.651 8.154-8.154 8.154h-156.124c-5.573.002-9.504-5.464-7.73-10.747z" fill="#fed2a4"/><g><path d="m462.136 194.161c-8.078-2.885-16.758-1.468-23.388 3.209 9.307 6.573 13.406 18.841 9.155 30.022l-46.446 122.351c-1.688 4.44-4.255 8.44-7.494 11.802l1.594-.784 26.047-12.807c7.923-3.896 14.073-10.651 17.211-18.903l38.651-101.659c5.1-13.416-1.814-28.403-15.33-33.231z" fill="#ffbd86"/></g><path d="m241.55 246.05c5.405 14.378-1.708 30.435-15.988 36.093l-33.148 13.134c-11.847 4.694-17.666 18.086-13.013 29.949 4.599 11.726 17.736 17.617 29.551 13.25l7.994-2.954c-3.479-2.511-6.303-6.012-7.983-10.296-4.653-11.863 1.166-25.255 13.013-29.949l33.148-13.134c14.28-5.658 21.393-21.715 15.988-36.093-5.437-14.463-21.51-21.845-36.023-16.544l-5.754 2.101c5.426 3.148 9.838 8.118 12.215 14.443z" fill="#ffbd86"/><path d="m205.181 21.558c-28.744 28.745-28.744 75.348 0 104.093l105.454 105.454 12.876 11.658c2.983 2.983 7.819 2.983 10.802 0l115.893-117.112c28.744-28.744 29.963-72.911 1.219-101.656-19.061-19.06-44.757-27.919-69.109-21.7-12.372 3.159-24.082 9.58-33.765 19.264l-19.639 19.639-19.639-19.639c-28.744-28.745-75.348-28.745-104.092-.001z" fill="#fe646f"/><g><path d="m452.643 21.559c-19.06-19.061-45.971-25.468-70.323-19.25 12.372 3.159 24.085 9.566 33.769 19.249 28.745 28.745 28.745 75.348 0 104.092l-105.454 105.455 12.876 12.876c2.983 2.983 7.819 2.983 10.802 0l118.33-118.33c28.745-28.744 28.745-75.348 0-104.092z" fill="#fd4755"/></g></g></svg>