<svg height="512" viewBox="0 0 512 512" width="512" xmlns="http://www.w3.org/2000/svg"><g id="flat"><path d="m192 240 40-40v-144h48v144l40 40-16 32-48-48-48 48z" fill="#d78e0c"/><path d="m212.754 282.289a126.68 126.68 0 0 1 -5.7-53.83l1.355-12.2c1.936-17.417-4.766-45.383-13.841-59.644l-29.8-46.83a29.768 29.768 0 0 0 -49.644-.882l-19.824 28.829a391.6 391.6 0 0 0 -64.932 166.268q-1.737 12.111-2.725 24.356l-3.217 40.2a133.689 133.689 0 0 0 31.76 97.666 39.442 39.442 0 0 0 63.393-4.765c11.811-18.895 28.412-45.457 28.412-45.457a92.142 92.142 0 0 0 65.575-73.448l2.663-15.978a92.154 92.154 0 0 0 -3.475-44.285z" fill="#cb2527"/><path d="m487.574 368.561-3.217-40.2q-.978-12.241-2.725-24.356a391.6 391.6 0 0 0 -64.932-166.273l-19.82-28.832a29.768 29.768 0 0 0 -49.644.882l-29.8 46.83c-9.075 14.261-15.777 42.227-13.841 59.644l1.355 12.2a126.68 126.68 0 0 1 -5.7 53.83 92.154 92.154 0 0 0 -3.475 44.285l2.663 15.978a92.142 92.142 0 0 0 65.571 73.451s16.6 26.562 28.412 45.462a39.442 39.442 0 0 0 63.393 4.765 133.689 133.689 0 0 0 31.76-97.666z" fill="#cb2527"/><path d="m27.643 328.356q.978-12.241 2.725-24.356h66.247c35.778 0 75.517-13.451 104.99-38.012l6.059-5.036a126.1 126.1 0 0 0 5.09 21.337 92.154 92.154 0 0 1 3.475 44.285l-2.663 15.978a92.142 92.142 0 0 1 -65.575 73.448s-16.6 26.562-28.412 45.462a39.442 39.442 0 0 1 -63.393 4.765 133.689 133.689 0 0 1 -31.76-97.666z" fill="#b22122"/><path d="m484.357 328.356q-.978-12.241-2.725-24.356h-66.247c-35.778 0-75.517-13.451-104.99-38.012l-6.059-5.036a126.1 126.1 0 0 1 -5.09 21.337 92.154 92.154 0 0 0 -3.475 44.285l2.663 15.978a92.142 92.142 0 0 0 65.575 73.448s16.6 26.562 28.412 45.462a39.442 39.442 0 0 0 63.393 4.765 133.689 133.689 0 0 0 31.76-97.666z" fill="#b22122"/><g fill="#ee9d0d"><path d="m232 120h48v32h-48z"/><path d="m232 56h48v32h-48z"/><path d="m288 208-24 24-8-8-8 8-24-24 8-8v-16h48v16z"/></g></g></svg>