<svg id="cube-mind" enable-background="new 0 0 300 300" height="512" viewBox="0 0 300 300" width="512" xmlns="http://www.w3.org/2000/svg"><g><circle cx="180.173" cy="170.266" fill="#ffc7c7" r="86"/><g fill="#4c241d"><path d="m250.173 228.266c-2.211 0-4-1.791-4-4v-8c0-2.209 1.789-4 4-4s4 1.791 4 4v8c0 2.209-1.789 4-4 4z"/><path d="m250.173 252.266c-2.211 0-4-1.791-4-4v-8c0-2.209 1.789-4 4-4s4 1.791 4 4v8c0 2.209-1.789 4-4 4z"/><path d="m242.173 236.266h-8c-2.211 0-4-1.791-4-4s1.789-4 4-4h8c2.211 0 4 1.791 4 4s-1.789 4-4 4z"/><path d="m266.173 236.266h-8c-2.211 0-4-1.791-4-4s1.789-4 4-4h8c2.211 0 4 1.791 4 4s-1.789 4-4 4z"/><circle cx="229.133" cy="200.214" r="4.276"/></g><g><path d="m197.464 263.725.001-27.934v-23.943c0-8.43 3.017-16.544 8.434-22.842 14.85-17.264 23.503-40.357 22.312-65.559-2.165-45.825-37.684-83.572-81.908-86.927-50.707-3.846-89.194 36.441-91.303 87.547l-.097-.01-20.676 40.693c-1.386 4.014.943 8.376 4.965 9.301l18.108 4.162 4.518 51.249c.373 3.6 3.309 6.331 6.809 6.331l36.272-4v31.934" fill="#9dc1e4"/><path d="m104.9 267.725c-2.211 0-4-1.791-4-4v-27.469l-31.836 3.512c-.145.016-.293.023-.438.023-5.566 0-10.203-4.264-10.789-9.92l-4.27-48.412-15.27-3.512c-2.98-.684-5.555-2.635-7.059-5.348-1.551-2.793-1.84-6.131-.793-9.158.059-.172.133-.342.215-.506l20.396-40.135c1.398-27.135 12.969-52.246 31.848-69.037 17.414-15.486 40.035-23.014 63.699-21.23 46.523 3.529 83.324 42.533 85.605 90.727 1.188 25.246-7.078 49.521-23.277 68.355-4.812 5.598-7.465 12.783-7.465 20.234v51.877h-8.004l.004-51.877c0-9.365 3.34-18.404 9.402-25.451 14.859-17.277 22.441-39.566 21.348-62.762-2.09-44.164-35.715-79.902-78.215-83.127-21.508-1.633-42 5.199-57.781 19.23-17.523 15.586-28.172 39.092-29.223 64.492-.035.871-.355 1.699-.898 2.365l-20.156 39.67c-.223.826-.121 1.709.293 2.453.238.432.797 1.189 1.852 1.432l18.105 4.162c1.691.389 2.938 1.82 3.09 3.547l4.52 51.25c.148 1.443 1.277 2.588 2.652 2.676l36.008-3.971c1.113-.119 2.258.236 3.105.998.848.758 1.332 1.842 1.332 2.979v31.934c0 2.208-1.789 3.999-4 3.999z" fill="#4c241d"/></g><g><path d="m164.553 64.288c-6.966-2.6-14.507-4.022-22.38-4.022-35.346 0-64 28.654-64 64s28.654 64 64 64 64-28.654 64-64c0-22.252-11.357-41.852-28.59-53.32" fill="#fff"/><path d="m142.173 192.266c-37.496 0-68-30.504-68-68s30.504-68 68-68c8.18 0 16.18 1.438 23.777 4.273 2.07.773 3.121 3.076 2.348 5.146-.766 2.072-3.07 3.121-5.145 2.35-6.699-2.502-13.758-3.77-20.98-3.77-33.086 0-60 26.916-60 60s26.914 60 60 60 60-26.916 60-60c0-20.133-10.02-38.82-26.805-49.99-1.84-1.225-2.34-3.707-1.113-5.547 1.223-1.84 3.703-2.338 5.543-1.113 19.02 12.656 30.375 33.834 30.375 56.65 0 37.497-30.504 68.001-68 68.001z" fill="#4c241d"/></g><path d="m250.759 78.95c-6.801 0-12.336-5.535-12.336-12.34 0-6.803 5.535-12.338 12.336-12.338 6.805 0 12.34 5.535 12.34 12.338 0 6.805-5.535 12.34-12.34 12.34zm0-16.678c-2.391 0-4.336 1.945-4.336 4.338s1.945 4.34 4.336 4.34c2.395 0 4.34-1.947 4.34-4.34s-1.945-4.338-4.34-4.338z" fill="#4c241d"/><g><path d="m142.173 80.266-36 20 36 32 36-32z" fill="#fc8c29"/><path d="m142.173 136.266c-.949 0-1.898-.336-2.656-1.01l-36-32c-.969-.861-1.461-2.141-1.32-3.428.145-1.289.902-2.43 2.035-3.059l36-20c1.203-.672 2.68-.672 3.883 0l36 20c1.133.629 1.891 1.77 2.035 3.059.141 1.287-.352 2.566-1.32 3.428l-36 32c-.758.674-1.708 1.01-2.657 1.01zm-29.129-35.242 29.129 25.891 29.129-25.891-29.129-16.182z" fill="#4c241d"/></g><g><path d="m142.173 164.266-36-20v-44l36 20z" fill="#ffce56"/><path d="m142.173 168.266c-.668 0-1.34-.168-1.941-.504l-36-20c-1.27-.705-2.059-2.043-2.059-3.496v-44c0-1.418.75-2.729 1.973-3.447 1.219-.719 2.734-.736 3.969-.049l36 20c1.27.705 2.059 2.043 2.059 3.496v44c0 1.418-.75 2.729-1.973 3.447-.625.37-1.325.553-2.028.553zm-32-26.353 28 15.555v-34.848l-28-15.555z" fill="#4c241d"/></g><g><path d="m142.173 164.266 36-20v-44l-36 20z" fill="#fc8c29"/><path d="m142.173 168.266c-.703 0-1.402-.184-2.027-.553-1.223-.719-1.973-2.029-1.973-3.447v-44c0-1.453.789-2.791 2.059-3.496l36-20c1.234-.693 2.75-.674 3.969.049 1.223.719 1.973 2.029 1.973 3.447v44c0 1.453-.789 2.791-2.059 3.496l-36 20c-.602.336-1.274.504-1.942.504zm4-45.646v34.848l28-15.555v-34.848z" fill="#4c241d"/></g></g></svg>