<svg id="Capa_1" enable-background="new 0 0 512 512" height="512" viewBox="0 0 512 512" width="512" xmlns="http://www.w3.org/2000/svg"><g><path d="m417.671 258.505c-.849-1.511-1.287-3.213-1.315-4.946-.276-17.241-3.262-33.821-8.532-49.346h-88.409c-2.291 0-4.155-1.864-4.155-4.156v-52.946c0-2.292 1.864-4.156 4.155-4.156h50.667c-25.142-25.613-58.741-42.894-96.28-47.313-3.308 19.83-13.853 37.717-30.052 50.394-6.04 4.727-10.395 10.904-12.594 17.863l-4.227 13.374 1.231.118c7.771.741 13.633 7.193 13.633 15.008 0 8.316-6.766 15.082-15.081 15.082v2c8.315 0 15.081 6.766 15.081 15.082s-6.766 15.082-15.081 15.082h-9.359l-4.165 20.048c-1.105 5.322-5.854 9.185-11.289 9.185h-15.906c-5.393 0-10.133-3.826-11.271-9.097l-4.346-20.135h-9.501c-8.316 0-15.082-6.766-15.082-15.082s6.766-15.082 15.082-15.082v-2c-8.316 0-15.082-6.766-15.082-15.082 0-7.815 5.861-14.268 13.633-15.008l1.231-.118-4.164-13.177c-2.268-7.178-6.484-13.299-12.192-17.7-1.547-1.193-3.038-2.443-4.484-3.736-28.207 28.527-45.946 67.438-46.764 110.388-.412 21.614 3.433 42.277 10.73 61.225h88.801c2.291 0 4.155 1.864 4.155 4.156v52.945c0 2.292-1.864 4.156-4.155 4.156h-46.936c3.99 3.648 8.152 7.111 12.494 10.349 10.533 7.855 16.859 20.121 16.859 33.261v82.547c0 5.695 4.617 10.312 10.312 10.312h119.04c5.695 0 10.312-4.617 10.312-10.312v-58.316c0-5.695 4.617-10.312 10.312-10.312h31.425c24.739 0 44.794-20.055 44.794-44.794v-32.943c0-5.695 4.617-10.312 10.312-10.312h25.976c9.303 0 16.845-7.542 16.845-16.845 0-2.89-.743-5.731-2.159-8.251z" fill="#fddeb0"/><g fill="#fdd79b"><path d="m137.898 313.273c-7.05-18.675-10.757-38.99-10.352-60.225.62-32.557 10.967-62.792 28.22-87.945l-.223-.706c-2.145-6.79-6.211-12.861-11.85-17.209-1.575-1.214-3.098-2.49-4.58-3.813-27.798 28.46-45.247 67.082-46.059 109.673-.404 21.235 3.303 41.55 10.352 60.225z"/><path d="m209.492 501.688v-82.547c0-13.14-6.325-25.405-16.858-33.261-3.946-2.942-7.747-6.066-11.403-9.349h-34.491c3.656 3.282 7.458 6.406 11.403 9.349 10.533 7.855 16.859 20.121 16.859 33.261v82.547c0 5.695 4.617 10.312 10.312 10.312h34.491c-5.696 0-10.313-4.617-10.313-10.312z"/></g><g fill="#c8effe"><path d="m319.415 204.212c-2.291 0-4.155-1.864-4.155-4.156v-35.632c-17.614-12.025-38.888-19.066-61.778-19.066-3.165 0-6.297.142-9.395.406-.113.089-.223.182-.336.271-6.04 4.727-10.395 10.904-12.594 17.863l-4.227 13.374 1.231.118c7.771.741 13.633 7.193 13.633 15.008 0 8.316-6.766 15.082-15.081 15.082v2c8.315 0 15.081 6.766 15.081 15.082s-6.766 15.082-15.081 15.082h-9.359l-4.165 20.048c-1.105 5.322-5.854 9.185-11.289 9.185h-15.906c-5.393 0-10.133-3.826-11.271-9.097l-4.346-20.135h-9.501c-6.562 0-12.142-4.219-14.212-10.081-1.976 8.23-3.03 16.815-3.03 25.643 0 21.727 6.342 42.001 17.27 59.068h31.679c2.291 0 4.155 1.864 4.155 4.156v30.799c16.571 10.038 35.993 15.822 56.742 15.822 60.569 0 109.846-49.277 109.846-109.846 0-18.395-4.552-35.745-12.578-50.993h-31.333z"/><path d="m160.877 209.48v-2c-2.036 0-3.977-.411-5.751-1.145-.935 1.874-1.82 3.776-2.649 5.708 2.402-1.617 5.293-2.563 8.4-2.563z"/></g><g fill="#99e6fc"><path d="m169 255.205c0-4.54.281-9.015.819-13.412l-.248-1.15h-8.694c-6.487 0-12.063-3.849-14.605-9.381-1.721 7.71-2.636 15.721-2.636 23.943 0 21.306 6.104 41.21 16.646 58.068h25.363c-10.543-16.856-16.645-36.762-16.645-58.068z"/><path d="m197.741 329.196v20.625c16.351 9.67 35.408 15.23 55.741 15.23 4.289 0 8.52-.256 12.682-.736-26.979-3.116-51.008-16.049-68.423-35.119z"/></g><path d="m253.482 201.088c-5.919 0-11.614.969-16.949 2.733-2.303 1.982-5.202 3.286-8.394 3.587-.481.256-.953.524-1.425.793v1.279c8.315 0 15.081 6.766 15.081 15.082s-6.766 15.082-15.081 15.082h-9.359l-4.165 20.048c-1.105 5.322-5.854 9.185-11.289 9.185h-.783c6.072 23.243 27.246 40.447 52.365 40.447 29.84 0 54.117-24.277 54.117-54.117s-24.278-54.119-54.118-54.119z" fill="#01d0fb"/><g fill="#01c0fa"><path d="m234.366 255.205c0-6.698 1.225-13.113 3.46-19.037-2.888 2.766-6.798 4.475-11.113 4.475h-8.545l-4 19.251c-1.208 5.814-6.33 9.981-12.268 9.981h-.499c6.413 22.732 27.324 39.447 52.08 39.447 6.124 0 12.007-1.037 17.501-2.921-21.274-7.292-36.616-27.48-36.616-51.196z"/><path d="m238.622 203.179c-2.942 3.248-7.18 5.301-11.908 5.301 8.882 0 16.082 7.2 16.082 16.082 0 .637-.047 1.261-.119 1.878 6.544-10.376 16.51-18.388 28.307-22.432-5.494-1.883-11.377-2.921-17.501-2.921-5.155.001-10.136.74-14.861 2.092z"/></g><g><path d="m192.568.009c-43.737.638-79.699 36.139-80.87 79.865-.734 27.408 11.97 51.875 31.994 67.314 5.639 4.348 9.704 10.419 11.85 17.209l4.102 12.982c.408-.033.816-.062 1.232-.062h65.837c.416 0 .824.029 1.232.062l4.165-13.18c2.187-6.922 6.54-12.902 12.257-17.376 19.206-15.03 31.555-38.417 31.555-64.696 0-45.766-37.434-82.788-83.354-82.118z" fill="#fed402"/><path d="m155.542 164.397 4.102 12.982c.407-.033.816-.062 1.232-.062h27.376l-6.85-21.676c-2.146-6.79-6.211-12.861-11.85-17.209-20.024-15.44-32.728-39.907-31.994-67.314.81-30.241 18.266-56.539 43.422-70.1-38.333 6.091-68.217 39.062-69.283 78.856-.734 27.408 11.97 51.875 31.994 67.314 5.641 4.348 9.706 10.419 11.851 17.209z" fill="#fac600"/><g><circle cx="193.795" cy="82.127" fill="#fee97d" r="47.616"/></g><path d="m193.795 27.011c-30.392 0-55.116 24.725-55.116 55.116 0 27.846 20.762 50.921 47.616 54.592v40.597h15v-40.597c26.854-3.672 47.616-26.746 47.616-54.592 0-30.391-24.724-55.116-55.116-55.116zm7.5 94.519v-21.139c-2.315.954-4.845 1.488-7.5 1.488s-5.185-.534-7.5-1.488v21.139c-18.546-3.523-32.616-19.846-32.616-39.403 0-22.12 17.996-40.116 40.116-40.116s40.116 17.996 40.116 40.116c0 19.556-14.07 35.879-32.616 39.403z" fill="#e8b800"/><path d="m160.877 208.48v1h65.837v-1c8.882 0 16.082-7.2 16.082-16.082s-7.2-16.082-16.082-16.082h-65.837c-8.882 0-16.082 7.2-16.082 16.082 0 8.882 7.2 16.082 16.082 16.082z" fill="#a8d3d8"/><g><path d="m169.354 239.643 4.391 20.346c1.245 5.768 6.346 9.886 12.248 9.886h15.907c5.938 0 11.06-4.168 12.268-9.981l4.207-20.251z" fill="#3e5959"/><path d="m196.068 259.989-4.391-20.346h-22.323l4.391 20.346c1.245 5.768 6.346 9.886 12.248 9.886h15.907c1.104 0 2.179-.145 3.206-.417-4.466-1.182-8.026-4.78-9.038-9.469z" fill="#384949"/><g><path d="m182.932 192.398c0-8.882 7.2-16.082 16.082-16.082h-38.137c-8.882 0-16.082 7.2-16.082 16.082s7.2 16.082 16.082 16.082h38.137c-8.882 0-16.082-7.2-16.082-16.082z" fill="#8ebac5"/></g><g><path d="m226.713 240.643h-65.837c-8.882 0-16.082-7.2-16.082-16.082 0-8.882 7.2-16.082 16.082-16.082h65.837c8.882 0 16.082 7.2 16.082 16.082 0 8.882-7.2 16.082-16.082 16.082z" fill="#8ebac5"/></g><g><path d="m182.932 224.562c0-8.882 7.2-16.082 16.082-16.082h-38.137c-8.882 0-16.082 7.2-16.082 16.082 0 8.882 7.2 16.082 16.082 16.082h38.137c-8.882-.001-16.082-7.201-16.082-16.082z" fill="#7ca1b1"/></g></g></g><g><g><path d="m192.585 376.531h-137.711c-2.848 0-5.156-2.308-5.156-5.156v-52.945c0-2.848 2.308-5.156 5.156-5.156h137.711c2.848 0 5.156 2.308 5.156 5.156v52.946c0 2.847-2.309 5.155-5.156 5.155z" fill="#05e39c"/></g><g><path d="m84.283 371.375v-52.945c0-2.848 2.308-5.156 5.156-5.156h-34.565c-2.848 0-5.156 2.308-5.156 5.156v52.946c0 2.848 2.308 5.156 5.156 5.156h34.565c-2.848-.001-5.156-2.309-5.156-5.157z" fill="#0ed290"/></g><g><g><path d="m96.913 352.402h-19.307c-4.143 0-7.5-3.358-7.5-7.5s3.357-7.5 7.5-7.5h19.307c4.143 0 7.5 3.358 7.5 7.5s-3.357 7.5-7.5 7.5z" fill="#537983"/></g><g><path d="m169.853 352.402h-47.881c-4.143 0-7.5-3.358-7.5-7.5s3.357-7.5 7.5-7.5h47.881c4.143 0 7.5 3.358 7.5 7.5s-3.358 7.5-7.5 7.5z" fill="#537983"/></g></g></g><g><g><path d="m457.126 205.212h-137.711c-2.848 0-5.156-2.308-5.156-5.156v-52.946c0-2.848 2.308-5.156 5.156-5.156h137.711c2.848 0 5.156 2.308 5.156 5.156v52.946c0 2.848-2.308 5.156-5.156 5.156z" fill="#fd5426"/></g><g><path d="m349.039 200.056v-52.945c0-2.848 2.308-5.156 5.156-5.156h-34.78c-2.848 0-5.156 2.308-5.156 5.156v52.945c0 2.848 2.308 5.156 5.156 5.156h34.78c-2.847 0-5.156-2.308-5.156-5.156z" fill="#ef4424"/></g><g><g><path d="m361.455 181.083h-19.308c-4.143 0-7.5-3.358-7.5-7.5s3.357-7.5 7.5-7.5h19.308c4.143 0 7.5 3.358 7.5 7.5s-3.357 7.5-7.5 7.5z" fill="#d73d24"/></g><g><path d="m434.394 181.083h-47.881c-4.143 0-7.5-3.358-7.5-7.5s3.357-7.5 7.5-7.5h47.881c4.143 0 7.5 3.358 7.5 7.5s-3.358 7.5-7.5 7.5z" fill="#d73d24"/></g></g></g><g><circle cx="193.795" cy="82.127" fill="#fe9901" r="20.752"/></g><path d="m190 82.127c0-8.437 5.044-15.684 12.273-18.928-2.591-1.162-5.455-1.824-8.478-1.824-11.461 0-20.752 9.291-20.752 20.752s9.291 20.752 20.752 20.752c3.023 0 5.887-.661 8.478-1.824-7.229-3.244-12.273-10.491-12.273-18.928z" fill="#fb8801"/></g></svg>