<svg id="Capa_1" enable-background="new 0 0 512 512" height="512" viewBox="0 0 512 512" width="512" xmlns="http://www.w3.org/2000/svg"><g><path d="m443.507 1.538h-39.764c-2.567 0-4.835 1.67-5.597 4.121l-23.083 74.244c-1.173 3.772 1.646 7.601 5.597 7.601h29.198c3.649 0 6.411 3.299 5.77 6.891l-10.288 57.626c-1.108 6.204 7.017 9.545 10.595 4.358l58.499-84.813c2.682-3.888-.101-9.189-4.825-9.189h-30.593c-4.024 0-6.851-3.962-5.543-7.767l15.577-45.305c1.308-3.806-1.519-7.767-5.543-7.767z" fill="#fee97d"/><path d="m409.212 54.608 15.585-45.307c1.303-3.806-1.519-7.766-5.551-7.766h24.264c4.022 0 6.843 3.96 5.54 7.766l-15.574 45.307c-1.313 3.806 1.518 7.766 5.54 7.766h-24.254c-4.031.001-6.853-3.96-5.55-7.766z" fill="#fee45a"/><path d="m474.433 71.568-58.501 84.807c-3.581 5.191-11.696 1.847-10.588-4.35l3.724-20.858 41.111-59.599c2.678-3.888-.103-9.193-4.832-9.193h24.264c4.72 0 7.5 5.304 4.822 9.193z" fill="#fee45a"/><path d="m196.755 342.421s-1.614 1.729-4.018 4.861c-13.367 17.417-20.482 38.827-20.482 60.782v103.936h47.68v-136.039z" fill="#ffcebf"/><path d="m336.192 342.421s1.614 1.729 4.018 4.861c13.367 17.417 20.482 38.827 20.482 60.782v103.936h-46.377v-136.039z" fill="#ffcebf"/><path d="m360.694 408.067v103.931h-20.478v-103.931c0-17.031-4.278-33.724-12.435-48.488l8.413-17.154s1.611 1.724 4.012 4.853c13.367 17.421 20.488 38.833 20.488 60.789z" fill="#ffb09e"/><path d="m319.738 441.572v-65.611l16.454-33.539c-16.578-17.697-43.691-30.726-69.481-31.247v-.015c-.088.001-.175.006-.263.007-.088-.002-.175-.006-.263-.007v.015c-25.79.521-52.851 13.55-69.429 31.247l16.454 33.539v65.733s-26.794 15.917-12.619 70.306h131.715c14.174-54.388-12.568-70.428-12.568-70.428z" fill="#8ac9fe"/><path d="m336.193 342.425-8.413 17.154c-2.36-4.278-5.048-8.392-8.044-12.301-2.38-3.088-26.675-30.995-27.301-31.713 16.929 5.315 32.688 15.041 43.758 26.86z" fill="#60b7ff"/><g><path d="m243.617 439.911c-1.917 0-3.835-.73-5.299-2.192-2.931-2.927-2.935-7.676-.008-10.606 7.56-7.571 17.615-11.741 28.313-11.741 10.686 0 20.733 4.161 28.291 11.718 2.929 2.929 2.929 7.678 0 10.606-2.93 2.93-7.677 2.929-10.607.001-4.724-4.724-11.004-7.325-17.684-7.325-6.688 0-12.973 2.606-17.698 7.339-1.465 1.467-3.386 2.2-5.308 2.2z" fill="#26a6fe"/></g><path d="m285.335 319.895v-30.035h-37.777v30.035c0 10.432 8.457 18.888 18.889 18.888 10.432 0 18.888-8.456 18.888-18.888z" fill="#ffcebf"/><path d="m353.866 159.465v50.158c0 48.282-39.138 87.419-87.419 87.419s-87.419-39.138-87.419-87.419v-57.072l9.17-12.303 80.342-20.865z" fill="#ffcebf"/><path d="m353.868 159.465v50.161c0 48.278-39.143 87.421-87.421 87.421-3.32 0-6.601-.187-9.823-.55 43.769-5.029 76.723-44.064 76.723-91.458v-45.917z" fill="#ffb09e"/><path d="m179.029 212.531h-11.436c-9.137 0-16.544-7.407-16.544-16.544v-.86c0-9.137 7.407-16.544 16.544-16.544h11.436z" fill="#ffcebf"/><path d="m353.866 212.531h11.436c9.137 0 16.544-7.407 16.544-16.544v-.86c0-9.137-7.407-16.544-16.544-16.544h-11.436z" fill="#ffcebf"/><path d="m334.037 99.12c-12.606-14.942-30.431-25.831-50.236-30.565-5.811-1.389-11.608-1.994-17.353-1.921-5.745-.072-11.542.532-17.353 1.921-19.806 4.734-37.631 15.623-50.236 30.565-12.808 15.182-19.83 34.15-19.83 53.431v25.593c40.761-3.468 61.056-27.317 85.591-53.128.992-1.044 2.665-1.044 3.657 0 24.535 25.812 44.83 49.66 85.591 53.128 0 0 0-25.592 0-25.593-.002-19.281-7.023-38.249-19.831-53.431z" fill="#596c76"/><path d="m353.871 152.554v25.588c-7.479-.636-14.271-1.96-20.52-3.857v-21.73c0-19.288-7.028-38.248-19.832-53.433-12.609-14.938-30.43-25.834-50.242-30.564-2.37-.575-4.73-1.005-7.089-1.313 3.437-.462 6.853-.657 10.26-.616 5.745-.072 11.542.534 17.349 1.929 19.812 4.73 37.633 15.626 50.242 30.564 12.804 15.184 19.832 34.144 19.832 53.432z" fill="#465a61"/><path d="m296.724 20.989c-9.157-27.94-51.368-28.03-60.553.001-5.366 16.377 1.658 35.965 16.209 45.199h3.376 21.381 3.376c14.553-9.235 21.577-28.823 16.211-45.2z" fill="#596c76"/><path d="m280.514 66.187h-20.52c14.548-9.234 21.576-28.82 16.21-45.194-3.345-10.198-11.091-16.682-20.027-19.452 15.554-4.812 34.729 1.693 40.547 19.452 5.366 16.375-1.662 35.961-16.21 45.194z" fill="#465a61"/><path d="m305.979 52.221c-.296-3.764-3.411-6.677-7.186-6.677h-64.692c-3.775 0-6.89 2.914-7.186 6.677-.442 5.622-.362 13.776 2.612 20.352 1.175 2.599 3.743 4.288 6.595 4.288h60.651c2.852 0 5.42-1.689 6.595-4.288 2.973-6.576 3.054-14.73 2.611-20.352z" fill="#8ac9fe"/><path d="m303.372 72.569c-1.18 2.606-3.745 4.289-6.597 4.289h-20.52c2.852 0 5.417-1.682 6.597-4.289 2.965-6.576 3.047-14.723 2.606-20.345-.298-3.765-3.406-6.679-7.182-6.679h20.52c3.776 0 6.884 2.914 7.182 6.679.442 5.622.359 13.769-2.606 20.345z" fill="#60b7ff"/><g><g><g><path d="m306.783 226.911c-1.638 0-3.287-.534-4.668-1.634l-21.249-16.928c-1.858-1.48-2.905-3.753-2.822-6.127s1.285-4.568 3.241-5.916l21.249-14.638c3.412-2.35 8.082-1.488 10.431 1.922 2.35 3.411 1.49 8.081-1.921 10.432l-12.918 8.898 13.336 10.624c3.24 2.581 3.774 7.3 1.193 10.539-1.482 1.86-3.667 2.828-5.872 2.828z" fill="#596c76"/></g><g><path d="m226.111 226.911c-2.206 0-4.39-.968-5.871-2.827-2.581-3.239-2.047-7.958 1.193-10.539l13.336-10.624-12.918-8.898c-3.411-2.351-4.271-7.021-1.921-10.432 2.35-3.41 7.02-4.27 10.431-1.922l21.249 14.638c1.956 1.348 3.158 3.542 3.241 5.916s-.964 4.646-2.822 6.127l-21.249 16.928c-1.381 1.099-3.03 1.633-4.669 1.633z" fill="#596c76"/></g></g></g><g><path d="m90.398 327.796c-.727 0-1.46-.105-2.179-.323-2.946-.895-5.046-3.5-5.296-6.568l-2.917-35.85-35.968.085c-.006 0-.012 0-.018 0-3.072 0-5.834-1.873-6.97-4.729-1.137-2.861-.41-6.127 1.833-8.235l26.209-24.633-22.492-28.066c-1.926-2.403-2.187-5.738-.659-8.412s4.533-4.141 7.582-3.701l35.6 5.133 7.92-35.085c.913-4.04 4.925-6.572 8.967-5.665 4.041.912 6.577 4.928 5.665 8.968l-9.446 41.846c-.862 3.817-4.516 6.332-8.386 5.771l-23.657-3.41 14.947 18.65c2.447 3.054 2.135 7.476-.716 10.155l-17.417 16.368 23.902-.057h.018c3.905 0 7.158 2.997 7.475 6.892l1.938 23.823 14.858-18.723c2.433-3.065 6.811-3.747 10.061-1.562l35.598 23.939c3.437 2.312 4.35 6.972 2.038 10.409s-6.972 4.349-10.409 2.038l-29.846-20.071-22.359 28.174c-1.448 1.824-3.626 2.839-5.876 2.839z" fill="#9facba"/></g></g></svg>