<svg id="Capa_1" enable-background="new 0 0 512 512" height="512" viewBox="0 0 512 512" width="512" xmlns="http://www.w3.org/2000/svg"><g><g><g><g><g><g><g><g><g><path d="m60.592 421.392c-37.798-44.613-60.592-102.341-60.592-165.392 0-141.385 114.615-256 256-256s256 114.615 256 256c0 63.051-22.794 120.779-60.592 165.392z" fill="#7584f2"/></g></g></g></g></g></g></g></g><path d="m510.663 282.322-186.385-186.385-168.507 124.113 49.034 49.034-12.684 12.61 139.699 139.698h119.589c32.469-38.325 53.867-86.328 59.254-139.07z" fill="#4855b7"/><g><g><g><circle cx="169.805" cy="198.554" fill="#faa68e" r="25.675"/></g></g><g><g><circle cx="342.195" cy="198.554" fill="#d47f6c" r="25.675"/></g></g></g><g><path d="m60.592 421.392c46.959 55.425 117.075 90.608 195.408 90.608s148.449-35.183 195.408-90.608v-10.552c0-29.638-21.049-55.099-50.159-60.672l-81.371-15.634h-127.756l-81.371 15.634c-29.109 5.573-50.159 31.034-50.159 60.672z" fill="#fff"/></g><g><path d="m401.249 350.168-81.371-15.634h-63.758v177.464c78.285-.036 148.353-35.209 195.288-90.606v-10.552c0-29.638-21.049-55.099-50.159-60.672z" fill="#e9edf5"/></g><g><g><path d="m278.168 410.618c0-15.221 12.339-27.561 27.561-27.561 11.623 0 21.565 7.185 25.617 17.363 4.051-10.179 13.994-17.363 25.617-17.363 15.222 0 27.561 12.339 27.561 27.561 0 37.701-53.178 63.044-53.178 63.044s-53.178-27.173-53.178-63.044z" fill="#ff5f96"/></g></g><g><path d="m319.878 334.534c-9.71-2.58-16.579-11.394-16.579-21.571v-59.39c-.544-.497-1.096-.985-1.656-1.465h-91.286c-.56.48-1.112.969-1.657 1.465v59.39c0 10.177-6.869 18.992-16.579 21.571 11.061 24.231 35.503 41.071 63.878 41.071s52.819-16.84 63.879-41.071z" fill="#faa68e"/></g><g><path d="m319.878 334.534c-9.71-2.58-16.579-11.394-16.579-21.571v-59.39c-.544-.497-1.096-.985-1.656-1.465h-45.523v123.495c28.324-.048 52.713-16.873 63.758-41.069z" fill="#d47f6c"/></g><g><g><path d="m256 307.894c-50.249 0-90.984-40.735-90.984-90.984v-60.846c0-50.249 40.735-90.984 90.984-90.984 50.249 0 90.984 40.735 90.984 90.984v60.846c0 50.249-40.735 90.984-90.984 90.984z" fill="#ffbeaa"/></g></g><g><g><path d="m256.12 65.082v242.81c50.193-.065 90.863-40.774 90.863-90.982v-60.846c.001-50.208-40.669-90.917-90.863-90.982z" fill="#faa68e"/></g></g></g></svg>