<svg height="512" viewBox="0 0 512 512" width="512" xmlns="http://www.w3.org/2000/svg"><g id="flat"><path d="m128 208-8 8h-48l8-32h36z" fill="#e6af89"/><path d="m233.758 272 11.908-7.938a47.994 47.994 0 0 1 26.625-8.062h1.467a48 48 0 0 1 38.4 19.2l33.6 44.8h-48l-24-32-16 16z" fill="#f6bb92"/><path d="m345.76 320h-48l-6-8h48z" fill="#f6bb92"/><path d="m209.758 288 24-16 24 32-16 16-1.758 8-32-8z" fill="#b22122"/><path d="m240 360h129.758l40-40-12.686-12.686a16 16 0 0 0 -22.628 0l-12.686 12.686h-121.758z" fill="#f6bb92"/><path d="m184 304-22.47 27.22-55.28 3.68a23.382 23.382 0 0 1 -2.9 0l-32.05-77.29a22.337 22.337 0 0 1 39.55 5.67l10.91 32.72 61.11 5.56z" fill="#e6af89"/><path d="m185.758 214a30 30 0 0 0 -30-30h-122v32h112l-16 24h-42.39a16.026 16.026 0 0 0 -14.768 22.245l31.847 75.636a36.145 36.145 0 0 0 33.311 22.119l46.242-56-22.242-48 18-24a30 30 0 0 0 6-18z" fill="#f6bb92"/><path d="m123.947 208-8 8h-48l8-32h36z" fill="#e6af89"/><path d="m393.758 376a16 16 0 0 1 -16 16h-288l-64.832-158.478a16.4 16.4 0 0 1 11.2-22.114 16.4 16.4 0 0 1 19.087 9.544l58.545 139.048h264a16 16 0 0 1 16 16z" fill="#d78e0c"/><path d="m201.758 288a8 8 0 0 1 -8-8v-32a8 8 0 0 1 4.422-7.155l16-8a8 8 0 1 1 7.155 14.31l-11.577 5.789v27.056a8 8 0 0 1 -8 8z" fill="#e2e2e2"/><path d="m184 304-22.47 27.22-55.28 3.68a23.382 23.382 0 0 1 -2.9 0l-32.05-77.29a22.337 22.337 0 0 1 39.55 5.67l10.91 32.72 61.11 5.56z" fill="#e6af89"/><path d="m101.705 176 2.715-5.431a16.4 16.4 0 0 0 -3.071-18.925 16.4 16.4 0 0 0 -17.682-3.629l-17.555 7.022a28.812 28.812 0 0 0 -16.633 17.641 28.808 28.808 0 0 0 1.563 22l10.663 21.322 8-32z" fill="#7a4922"/><path d="m90 392-32 80h46l17.758-48h224l22.242 48h40l-38.242-80z" fill="#c7830b"/><circle cx="356.085" cy="136" fill="#ee9d0d" r="32"/><g fill="#eeb436"><path d="m356.084 80a8 8 0 0 1 -8-8v-16a8 8 0 0 1 16 0v16a8 8 0 0 1 -8 8z"/><path d="m318.473 92.224a7.99 7.99 0 0 1 -6.479-3.3l-9.405-12.944a8 8 0 0 1 12.945-9.4l9.4 12.945a8 8 0 0 1 -6.465 12.7z"/><path d="m295.218 124.225a7.985 7.985 0 0 1 -2.473-.394l-15.217-4.944a8 8 0 0 1 4.944-15.217l15.217 4.944a8 8 0 0 1 -2.471 15.611z"/><path d="m280 168.724a8 8 0 0 1 -2.471-15.611l15.217-4.944a8 8 0 0 1 4.944 15.217l-15.217 4.944a7.99 7.99 0 0 1 -2.473.394z"/><path d="m309.055 208.723a8 8 0 0 1 -6.466-12.7l9.405-12.945a8 8 0 0 1 12.944 9.4l-9.4 12.945a7.993 7.993 0 0 1 -6.483 3.3z"/><path d="m356.084 224a8 8 0 0 1 -8-8v-16a8 8 0 0 1 16 0v16a8 8 0 0 1 -8 8z"/><path d="m416.951 124.225a8 8 0 0 1 -2.471-15.611l15.22-4.944a8 8 0 0 1 4.944 15.217l-15.217 4.944a7.985 7.985 0 0 1 -2.476.394z"/><path d="m393.7 92.224a8 8 0 0 1 -6.466-12.7l9.4-12.945a8 8 0 0 1 12.945 9.4l-9.4 12.945a7.993 7.993 0 0 1 -6.479 3.3z"/></g><path d="m232 96.006h-1.381c-.069-.194-.132-.39-.207-.584a23.994 23.994 0 0 0 -45.033.584h-1.379a16 16 0 0 0 -16 16 16 16 0 0 0 16 16h23.963.492 23.545a16 16 0 0 0 16-16 16 16 0 0 0 -16-16z" fill="#eae9e4"/><path d="m488 480h-464a8 8 0 0 1 0-16h464a8 8 0 0 1 0 16z" fill="#b2750a"/><path d="m471.652 176.348a19.987 19.987 0 0 0 -21.679-16.248 24 24 0 0 0 -41.973 15.9c0 .134.008.266.01.4a20.006 20.006 0 0 0 -16.01 19.6 20 20 0 0 0 20 20h56a20 20 0 0 0 20-20 20 20 0 0 0 -16.348-19.652z" fill="#eae9e4"/><path d="m345.76 320h-48l-6-8h48z" fill="#e6af89"/><path d="m241.758 320v40h-104l24-40z" fill="#cb2527"/><path d="m116.579 253.94 8.458 27.408 50.6 4.6 8.363 18.052-9.41 11.39-68.34 4.56a21.9 21.9 0 0 1 -9.75-1.57l-25.87-62.38 38.712-6.519a6.452 6.452 0 0 1 7.237 4.459z" fill="#e6af89"/><path d="m177.758 272h32v48h-32z" fill="#a6deff"/><path d="m200 272h9.758v48h-9.758z" fill="#92d1f7"/><path d="m101.705 176 16 32-16 16 8 16-25.758 40-22.242-64 8-32z" fill="#f6bb92"/><path d="m68.659 269.977 15.451 42.491a22 22 0 0 0 22.139 14.432l103.509-6.9v-24l-88-8-10.908-32.723a22.341 22.341 0 0 0 -21.195-15.277 22.341 22.341 0 0 0 -20.996 29.977z" fill="#f6bb92"/></g></svg>